HIERARCHY
ROOT hip
{
  OFFSET 43.4033 84.2112 243.204
  CHANNELS 6 Xposition Yposition Zposition Zrotation Xrotation Yrotation
  JOINT abdomen
  {
    OFFSET 0 20.6881 -0.73152
    CHANNELS 3 Zrotation Xrotation Yrotation
    JOINT chest
    {
      OFFSET 0 11.7043 -0.48768
      CHANNELS 3 Zrotation Xrotation Yrotation
      JOINT neck
      {
        OFFSET 0 22.1894 -2.19456
        CHANNELS 3 Zrotation Xrotation Yrotation
        JOINT head
        {
          OFFSET -0.24384 7.07133 1.2192
          CHANNELS 3 Zrotation Xrotation Yrotation
          JOINT leftEye
          {
            OFFSET 4.14528 8.04674 8.04672
            CHANNELS 3 Zrotation Xrotation Yrotation
            End Site
            {
              OFFSET 1 0 0
            }
          }
          JOINT rightEye
          {
            OFFSET -3.6576 8.04674 8.04672
            CHANNELS 3 Zrotation Xrotation Yrotation
            End Site
            {
              OFFSET 1 0 0
            }
          }
        }
      }
      JOINT rCollar
      {
        OFFSET -2.68224 19.2634 -4.8768
        CHANNELS 3 Zrotation Xrotation Yrotation
        JOINT rShldr
        {
          OFFSET -8.77824 -1.95073 1.46304
          CHANNELS 3 Zrotation Xrotation Yrotation
          JOINT rForeArm
          {
            OFFSET -28.1742 -1.7115 0.48768
            CHANNELS 3 Zrotation Xrotation Yrotation
            JOINT rHand
            {
              OFFSET -22.5879 0.773209 7.07136
              CHANNELS 3 Zrotation Xrotation Yrotation
              JOINT rThumb1
              {
                OFFSET -1.2192 -0.487915 3.41376
                CHANNELS 3 Zrotation Xrotation Yrotation
                JOINT rThumb2
                {
                  OFFSET -3.37035 -0.52449 3.41376
                  CHANNELS 3 Zrotation Xrotation Yrotation
                  End Site
                  {
                    OFFSET -1.78271 -1.18214 1.43049
                  }
                }
              }
              JOINT rIndex1
              {
                OFFSET -7.75947 0.938293 5.60832
                CHANNELS 3 Zrotation Xrotation Yrotation
                JOINT rIndex2
                {
                  OFFSET -2.54057 -0.884171 1.56538
                  CHANNELS 3 Zrotation Xrotation Yrotation
                  End Site
                  {
                    OFFSET -1.62519 -0.234802 1.16502
                  }
                }
              }
              JOINT rMid1
              {
                OFFSET -8.24714 1.18213 3.41376
                CHANNELS 3 Zrotation Xrotation Yrotation
                JOINT rMid2
                {
                  OFFSET -3.10165 -0.590103 1.0647
                  CHANNELS 3 Zrotation Xrotation Yrotation
                  End Site
                  {
                    OFFSET -2.48547 -0.328903 0.83742
                  }
                }
              }
              JOINT rRing1
              {
                OFFSET -8.82822 0.546677 1.51678
                CHANNELS 3 Zrotation Xrotation Yrotation
                JOINT rRing2
                {
                  OFFSET -2.60934 -0.819778 -0.0198488
                  CHANNELS 3 Zrotation Xrotation Yrotation
                  End Site
                  {
                    OFFSET -2.33842 -0.294052 0.168128
                  }
                }
              }
              JOINT rPinky1
              {
                OFFSET -8.27202 -0.0477905 -0.4584
                CHANNELS 3 Zrotation Xrotation Yrotation
                JOINT rPinky2
                {
                  OFFSET -1.82734 -0.647385 -0.700984
                  CHANNELS 3 Zrotation Xrotation Yrotation
                  End Site
                  {
                    OFFSET -1.69225 -0.51767 -0.607171
                  }
                }
              }
            }
          }
        }
      }
      JOINT lCollar
      {
        OFFSET 2.68224 19.2634 -4.8768
        CHANNELS 3 Zrotation Xrotation Yrotation
        JOINT lShldr
        {
          OFFSET 8.77824 -1.95073 1.46304
          CHANNELS 3 Zrotation Xrotation Yrotation
          JOINT lForeArm
          {
            OFFSET 28.1742 -1.7115 0.48768
            CHANNELS 3 Zrotation Xrotation Yrotation
            JOINT lHand
            {
              OFFSET 22.5879 0.773209 7.07136
              CHANNELS 3 Zrotation Xrotation Yrotation
              JOINT lThumb1
              {
                OFFSET 1.2192 -0.487915 3.41376
                CHANNELS 3 Zrotation Xrotation Yrotation
                JOINT lThumb2
                {
                  OFFSET 3.37035 -0.52449 3.41376
                  CHANNELS 3 Zrotation Xrotation Yrotation
                  End Site
                  {
                    OFFSET 1.78271 -1.18214 1.43049
                  }
                }
              }
              JOINT lIndex1
              {
                OFFSET 7.75947 0.938293 5.60832
                CHANNELS 3 Zrotation Xrotation Yrotation
                JOINT lIndex2
                {
                  OFFSET 2.54057 -0.884171 1.56538
                  CHANNELS 3 Zrotation Xrotation Yrotation
                  End Site
                  {
                    OFFSET 1.62519 -0.234802 1.16502
                  }
                }
              }
              JOINT lMid1
              {
                OFFSET 8.24714 1.18213 3.41376
                CHANNELS 3 Zrotation Xrotation Yrotation
                JOINT lMid2
                {
                  OFFSET 3.10165 -0.590103 1.0647
                  CHANNELS 3 Zrotation Xrotation Yrotation
                  End Site
                  {
                    OFFSET 2.48547 -0.328903 0.83742
                  }
                }
              }
              JOINT lRing1
              {
                OFFSET 8.82822 0.546677 1.51678
                CHANNELS 3 Zrotation Xrotation Yrotation
                JOINT lRing2
                {
                  OFFSET 2.60934 -0.819778 -0.0198488
                  CHANNELS 3 Zrotation Xrotation Yrotation
                  End Site
                  {
                    OFFSET 2.33842 -0.294052 0.168128
                  }
                }
              }
              JOINT lPinky1
              {
                OFFSET 8.27202 -0.0477905 -0.4584
                CHANNELS 3 Zrotation Xrotation Yrotation
                JOINT lPinky2
                {
                  OFFSET 1.82734 -0.647385 -0.700984
                  CHANNELS 3 Zrotation Xrotation Yrotation
                  End Site
                  {
                    OFFSET 1.69225 -0.51767 -0.607171
                  }
                }
              }
            }
          }
        }
      }
    }
  }
  JOINT rButtock
  {
    OFFSET -8.77824 4.35084 1.2192
    CHANNELS 3 Zrotation Xrotation Yrotation
    JOINT rThigh
    {
      OFFSET 0 -1.70687 -2.19456
      CHANNELS 3 Zrotation Xrotation Yrotation
      JOINT rShin
      {
        OFFSET 0 -36.8199 0.73152
        CHANNELS 3 Zrotation Xrotation Yrotation
        JOINT rFoot
        {
          OFFSET 0.73152 -45.1104 -5.12064
          CHANNELS 3 Zrotation Xrotation Yrotation
          End Site
          {
            OFFSET -1.1221 -3.69964 12.103
          }
        }
      }
    }
  }
  JOINT lButtock
  {
    OFFSET 8.77824 4.35084 1.2192
    CHANNELS 3 Zrotation Xrotation Yrotation
    JOINT lThigh
    {
      OFFSET 0 -1.70687 -2.19456
      CHANNELS 3 Zrotation Xrotation Yrotation
      JOINT lShin
      {
        OFFSET 0 -36.8199 0.73152
        CHANNELS 3 Zrotation Xrotation Yrotation
        JOINT lFoot
        {
          OFFSET -0.73152 -45.1104 -5.12064
          CHANNELS 3 Zrotation Xrotation Yrotation
          End Site
          {
            OFFSET 1.1221 -3.69964 12.103
          }
        }
      }
    }
  }
}
MOTION
Frames:	4
Frame Time:	0.00833333
53.2081 85.5235 -206.156 5.62001 3.58809 0.292138 5.5354 2.19958 3.10517 -0.538906 -10.3849 0.943935 -6.34976 10.3761 -4.4549 12.7064 -11.3368 -6.85216 -0 0 0 -0 0 0 1.89092e-013 -1.22451e-013 7.35503e-015 84.2269 32.6518 -6.53791 -14.4229 -7.30074 26.4088 -0.464457 19.004 2.77437 -2.07682e-009 2.85176e-009 -1.08591e-009 -3.60469e-009 4.9018e-009 -1.84035e-009 -2.07681e-009 2.85176e-009 -1.08591e-009 7.73091 5.47488 0.417314 -2.07681e-009 2.85175e-009 -1.08591e-009 2.90554 0.965183 0.102902 -2.0768e-009 2.85176e-009 -1.08591e-009 10.2786 0.731801 0.0259123 -2.07682e-009 2.85176e-009 -1.08591e-009 2.22167 -0.733487 -0.20892 1.89009e-013 -1.22451e-013 6.95746e-015 -85.6841 33.4843 10.3499 15.8066 -8.50878 -29.2654 0.347702 16.5393 -2.39193 -3.16627e-010 -1.7658e-009 -1.71931e-009 -5.68066e-010 -3.06829e-009 -2.96831e-009 -3.16626e-010 -1.7658e-009 -1.7193e-009 -7.73091 5.47488 -0.417314 -3.16624e-010 -1.7658e-009 -1.71931e-009 -2.90554 0.965183 -0.102902 -3.16631e-010 -1.7658e-009 -1.71931e-009 -10.2786 0.731801 -0.0259123 -3.16621e-010 -1.7658e-009 -1.71933e-009 -2.22167 -0.733487 0.20892 -2.03217e-016 0 -3.88251e-019 18.3231 1.59986 10.8896 0.081547 12.9335 0.884127 -10.7619 -15.3815 -37.972 2.03217e-016 0 3.88251e-019 -0.0077964 -31.9263 -22.3085 0.0883289 26.1174 -1.24784 9.53474 -16.2635 23.2356 
53.2706 85.5038 -205.746 5.66716 3.63596 0.232432 5.61274 2.09116 3.08995 -0.530349 -10.334 0.942915 -6.41403 10.2823 -4.44733 12.9166 -10.9773 -6.83978 -0 0 0 -0 0 0 1.60008e-013 -1.08828e-013 2.92509e-015 83.8817 32.7612 -6.42334 -14.3497 -7.24026 26.2601 -0.478652 19.2752 2.81719 -1.52599e-009 2.12325e-009 -8.25256e-010 -2.6481e-009 3.64932e-009 -1.39949e-009 -1.52598e-009 2.12325e-009 -8.25261e-010 7.73091 5.47488 0.417314 -1.52598e-009 2.12325e-009 -8.25258e-010 2.90554 0.965183 0.102902 -1.52598e-009 2.12325e-009 -8.25256e-010 10.2786 0.731801 0.0259123 -1.52599e-009 2.12325e-009 -8.25257e-010 2.22167 -0.733487 -0.20892 1.59933e-013 -1.08828e-013 2.52286e-015 -85.7837 33.3159 10.5214 15.8119 -8.51367 -29.2766 0.329253 16.1196 -2.32771 -3.19408e-010 -1.50359e-009 -1.41569e-009 -5.69777e-010 -2.61193e-009 -2.44317e-009 -3.19408e-010 -1.50359e-009 -1.41569e-009 -7.73091 5.47488 -0.417314 -3.19404e-010 -1.50359e-009 -1.4157e-009 -2.90554 0.965183 -0.102902 -3.19412e-010 -1.50359e-009 -1.4157e-009 -10.2786 0.731801 -0.0259123 -3.19401e-010 -1.50359e-009 -1.41572e-009 -2.22167 -0.733487 0.20892 -2.03217e-016 0 -3.88251e-019 18.2938 1.76959 10.7412 0.0815523 12.947 0.884756 -10.7126 -15.3608 -37.8847 2.03217e-016 0 3.88251e-019 -0.0394632 -31.7358 -22.3575 0.0872972 26.0653 -1.24849 9.52924 -16.1477 23.3259 
53.3257 85.4429 -205.391 5.74344 3.66504 0.160821 5.72729 1.96894 3.05263 -0.491316 -10.2373 0.939185 -6.51096 10.1993 -4.42928 13.1273 -10.6402 -6.80354 -0 0 0 -0 0 0 9.9756e-014 -8.42347e-014 -4.16205e-016 83.4693 32.886 -6.26967 -14.2661 -7.17133 26.0907 -0.490446 19.4994 2.85265 -5.74819e-010 8.51834e-010 -3.47001e-010 -9.96135e-010 1.46369e-009 -5.89812e-010 -5.74812e-010 8.51831e-010 -3.47005e-010 7.73091 5.47488 0.417314 -5.74816e-010 8.51828e-010 -3.47003e-010 2.90554 0.965183 0.102902 -5.74808e-010 8.5183e-010 -3.47001e-010 10.2786 0.731801 0.0259123 -5.74823e-010 8.51832e-010 -3.47e-010 2.22167 -0.733487 -0.20892 9.96875e-014 -8.42346e-014 -8.26198e-016 -85.8871 33.1299 10.6407 15.8218 -8.52273 -29.2974 0.308383 15.6231 -2.25217 -2.97238e-010 -9.8871e-010 -8.38926e-010 -5.25347e-010 -1.7161e-009 -1.44594e-009 -2.97242e-010 -9.88711e-010 -8.38917e-010 -7.73091 5.47488 -0.417314 -2.97235e-010 -9.8871e-010 -8.38927e-010 -2.90554 0.965183 -0.102902 -2.97244e-010 -9.8871e-010 -8.3893e-010 -10.2786 0.731801 -0.0259123 -2.97232e-010 -9.88707e-010 -8.38947e-010 -2.22167 -0.733487 0.20892 -2.03217e-016 0 -3.88251e-019 18.2967 1.96086 10.5762 0.0815901 12.9736 0.886046 -10.6648 -15.344 -37.807 2.03217e-016 0 3.88251e-019 -0.0251587 -31.5426 -22.2626 0.0866069 26.0857 -1.24935 9.47134 -15.9525 23.3723 
53.4276 85.4258 -204.946 5.81542 3.69439 0.0994192 5.84713 1.83815 3.01366 -0.448994 -10.1367 0.935503 -6.60992 10.1226 -4.40523 13.3189 -10.3097 -6.75792 -0 0 0 -0 0 0 3.72303e-014 -5.96661e-014 -2.65486e-015 83.0343 33.0084 -6.1048 -14.1779 -7.09896 25.9126 -0.50162 19.7111 2.8862 3.93237e-010 -4.30606e-010 1.2959e-010 6.84918e-010 -7.40499e-010 2.16625e-010 3.93241e-010 -4.30609e-010 1.29586e-010 7.73091 5.47488 0.417314 3.93238e-010 -4.30609e-010 1.29589e-010 2.90554 0.965183 0.102902 3.93246e-010 -4.30608e-010 1.2959e-010 10.2786 0.731801 0.0259123 3.9323e-010 -4.30606e-010 1.29594e-010 2.22167 -0.733487 -0.20892 3.71649e-014 -5.96662e-014 -3.06641e-015 -85.9857 32.9199 10.7504 15.8309 -8.53106 -29.3165 0.289039 15.136 -2.17853 -2.89497e-010 -4.70544e-010 -2.43304e-010 -5.05572e-010 -8.14226e-010 -4.15913e-010 -2.89505e-010 -4.70547e-010 -2.43295e-010 -7.73091 5.47488 -0.417314 -2.89495e-010 -4.70547e-010 -2.43304e-010 -2.90554 0.965183 -0.102902 -2.89504e-010 -4.70546e-010 -2.43309e-010 -10.2786 0.731801 -0.0259123 -2.89491e-010 -4.70541e-010 -2.43324e-010 -2.22167 -0.733487 0.20892 -2.03217e-016 0 -3.88251e-019 18.29 2.15661 10.4217 0.081625 13.0038 0.887441 -10.5995 -15.3067 -37.7259 2.03217e-016 0 3.88251e-019 -0.0229346 -31.3388 -22.1537 0.0862402 26.13 -1.25024 9.40848 -15.732 23.4301 
